<?xml version="1.0" encoding="utf-8"?>
<svg id="master-artboard" viewBox="0 0 1750 980" version="1.1" xmlns="http://www.w3.org/2000/svg" x="0px" y="0px" width="1750px" height="980px" enable-background="new 0 0 1750 980">
<linearGradient id="SVGID_1_" gradientUnits="userSpaceOnUse" x1="875" y1="980" x2="875" y2="-3.928380e-008">
	<stop offset="0" style="stop-color:#9900CC"/>
	<stop offset="1" style="stop-color:#021A40"/>
</linearGradient>
<path d="M 0 0 H 1750 V 980 H 0 V 0 Z" fill-rule="evenodd" clip-rule="evenodd" fill="url(#SVGID_1_)"/>



<g>
	<path fill-rule="evenodd" clip-rule="evenodd" fill="#FF6666" d="M1750,755.8V980H0V755.8c246.3-27.5,548.4-43.7,875-43.7&#10;&#9;&#9;S1503.7,728.3,1750,755.8L1750,755.8z"/>
	<path fill-rule="evenodd" clip-rule="evenodd" fill="#DB4646" d="M674.6,980H577l-33.1-9.2l-55.8,9.2H0V755.8&#10;&#9;&#9;c246.3-27.5,548.4-43.7,875-43.7c69.5,0,148.1,5.2,187.8,15.3l-353.7,8.1l207.5,10.1l-143.3,5.9l-177.7,12.6l-269.2,8.6l-76.6,17.3&#10;&#9;&#9;l50.6,11.1l24.7,18.5l180.3,21l65.4-9.9l63,11.1l139.5,8.6l-164.2,11.1l-76.5,24.7H384.5L199.3,921l84,14.8l28.4,21l248.2-3.7&#10;&#9;&#9;L674.6,980z M663.2,882.6l-26.6-5l-41.4,3.7l32.1,3.7L663.2,882.6z M702.1,883.8l29.6-5.6l24.7,4.3l-41.4,3.7L702.1,883.8z&#10;&#9;&#9; M791,855.4l57.4,4.3l40.1-5.6l56.8,7.4l95.7-6.2l-65.5-3.7l-40.1,4.9L875,846.1l-41.4,6.9L791,855.4z M1619.5,847.6l-18.9-5.3&#10;&#9;&#9;l-32.8,5.4l21.1,4.2L1619.5,847.6z M1509.6,786.3l-14.9-1.5l-25.9,1.5l16.7,1.1L1509.6,786.3z M1677.4,790.3l-5.1-1.4l-9,1.5&#10;&#9;&#9;l5.8,1.2L1677.4,790.3z M1546.4,872.3l-36.4-10.2l-63.3,10.5l40.7,8L1546.4,872.3z M248.3,825.8l-36.4-10.2l-63.3,10.5l40.7,8&#10;&#9;&#9;L248.3,825.8z M707.7,931.2l82.7-11.1l149.4,13.6l-127.2,17.3L707.7,931.2z M448.4,910.3l24.7-2.4l17.3,3.1h-23.5L448.4,910.3z&#10;&#9;&#9; M942.9,980l125.3-32l71.6,18.5l15.4,8l64.2,5.5H942.9z M318.1,931.3l35.2,8.6l16.1-1.9l-29.6-6.2L318.1,931.3z M346.5,805.7&#10;&#9;&#9;l43.8,8l38.6-4.9l-18.2-6.8L346.5,805.7z M691.9,793.7l24.4-3.1l18.8,5l-29.3,0.9L691.9,793.7z M1151.7,743.6l-9.9-0.6l-9.1,1.1&#10;&#9;&#9;l12.8,0.3L1151.7,743.6z M1088.3,727.8l12.2-0.9l6.5,1.4L1088.3,727.8z M968.2,746.6l37.1-1.3l19.1,1.3l-29,4.9L968.2,746.6z&#10;&#9;&#9; M613.2,781.1h27.2l20.4,8.6l22.2,3.1l-31.5,0.6h-1.8l-17.3-9.2L613.2,781.1z M1350.3,812l-30.3-6.2l-24.1,6.8l-27.2,1.2l43.9,5.6&#10;&#9;&#9;L1350.3,812z M1131.2,846l-42-3.7l30.9-1.3L1131.2,846z M1212.1,854.6l-35.8,8.6l53.7,5l46.3-9.9L1212.1,854.6z M1112.5,770.1&#10;&#9;&#9;l229.8,17.8l46.9,16l261.8,22.2l-60.5,2.5l-76.5,17.3L1367,859.6l-108.6,45.7l-158.1,22.2h138.3l101.3,17.3l127.2-34.6l209.9-11.1&#10;&#9;&#9;l-79,23.5l-42,30.9L1401.6,980H1750V755.8L1112.5,770.1z"/>
	<path fill-rule="evenodd" clip-rule="evenodd" fill="#A62A38" d="M321.8,754L84.7,770l109.9,17.3l23.5,8.6l-70.4,9.9L77.3,812&#10;&#9;&#9;l59.3,21l-108.7,3.1l167.9,22.9l71.6-22.2l100,14.8l63,3.7l-149.4,24.7l-81.5-7.4L69.9,891H0V740.4L321.8,754z M1689.9,980&#10;&#9;&#9;l-36.4-14.7l-56.8,5.6l-33.4-6.2L1501,980H1689.9z M1750,919l-67.5,15.4l67.5,10.5V919z M1750,817.7l-42.8,3.1l-26.5,9.9&#10;&#9;&#9;l-30.9,10.5l-6.8,9.2l-79,19.8l92,2.4l42,17.3l31.5-11.1l20.6,4.9V817.7z M1397.2,771.5l40.7,9.2l100.7-4.9l71.6,16.7h-74.1&#10;&#9;&#9;l125.3,14.8l28.4-6.2l-71.6-12.4l73.5-7.4l58.3,8.6v-42.6L1397.2,771.5z M1740.8,972.1l-12.6-4l-19.8,2.1l16.7,4.3L1740.8,972.1z&#10;&#9;&#9; M1676.3,955.4l-46.6-7.4l-21.3,8L1676.3,955.4z M144.6,793.9l-12.7-4l-19.7,2.1l16.7,4.3L144.6,793.9z M80.1,777.3l-46.6-7.4&#10;&#9;&#9;l-21.3,8L80.1,777.3z M1415.6,903.6l-5.2-1.4l-9,1.5l5.8,1.2L1415.6,903.6z M1395.3,890.4l-18.9-5.3l-32.8,5.5l21.1,4.1&#10;&#9;&#9;L1395.3,890.4z M1345.4,914.1l-14.9-1.4l-25.9,1.5l16.7,1.2L1345.4,914.1z M502.1,861.9l32.7,4l25-1.5l-11.7-4.9L502.1,861.9z&#10;&#9;&#9; M51.1,906.9l-17-4.9L19,902.3l15.8,5.9L51.1,906.9z M87.2,912.5l30.6,4.3l30.9-3.7l39.5,8.6l-39.8-13.3l-27.8,3.4l-11.1-4.3&#10;&#9;&#9;L87.2,912.5z M208.8,777.6l27.2,7.1l25.6-8.6l-19.1-2.8L208.8,777.6z M174.9,769l10.5,1.9l-21.3-0.9L174.9,769z M0,921.3l110.7,37&#10;&#9;&#9;l97.5-6.8l72.8,28.5H0V921.3z"/>
</g>


<g>
	<g>
		<path d="M 183.6999969482422 806.4000244140625 L 201.5 779.2999877929688 L 234.39999389648438 762.9000244140625 L 236.1999969482422 758.2000122070312 L 250.39999389648438 726.0999755859375 L 285 716.9000244140625 L 308.3999938964844 762.5 L 343.6000061035156 774.2999877929688 L 363.3999938964844 813.7999877929688 L 315.79998779296875 816.2000122070312 L 280.6000061035156 826.0999755859375 L 209.6999969482422 824.9000244140625 L 160.3000030517578 816.2000122070312 L 140.5 816.2000122070312 L 160.3000030517578 800.7999877929688 L 176.89999389648438 799 Z" fill-rule="evenodd" clip-rule="evenodd" fill="#FF6198"/>
		<path d="M 166.6999969482422 805.0999755859375 L 176.60000610351562 807.2999877929688 L 180.3000030517578 812.5999755859375 L 200.10000610351562 798 L 208.89999389648438 780.4000244140625 L 239 774.7000122070312 L 249.60000610351562 802.2000122070312 L 249.8000030517578 774 L 243 765.9000244140625 L 250.10000610351562 752.4000244140625 L 274.5 751.0999755859375 L 298.20001220703125 768.4000244140625 L 310.29998779296875 802.7000122070312 L 314.8999938964844 782 L 335.29998779296875 796.2000122070312 L 339.6000061035156 815 L 315.79998779296875 816.2000122070312 L 280.6000061035156 826.0999755859375 L 209.6999969482422 824.9000244140625 L 160.3000030517578 816.2000122070312 L 150.39999389648438 816.2000122070312 Z" fill-rule="evenodd" clip-rule="evenodd" fill="#A13A67"/>
		<path d="M 189.1999969482422 821.2999877929688 L 219.8000030517578 799.9000244140625 L 228.3000030517578 783.5 L 239.1999969482422 787 L 255.5 818.5 L 257.29998779296875 773.4000244140625 L 282.29998779296875 778.0999755859375 L 305.1000061035156 819.2000122070312 L 280.6000061035156 826.0999755859375 L 209.6999969482422 824.9000244140625 Z" fill-rule="evenodd" clip-rule="evenodd" fill="#4A1330"/>
	</g>
	<g>
		<path d="M 1625.5 807.9000244140625 L 1612.4000244140625 787.7000122070312 L 1588 775.5999755859375 L 1586.5999755859375 772.0999755859375 L 1576.0999755859375 748.2999877929688 L 1550.5 741.5 L 1533.0999755859375 775.2999877929688 L 1507 784.0999755859375 L 1492.300048828125 813.4000244140625 L 1527.5999755859375 815.2000122070312 L 1553.699951171875 822.5 L 1606.300048828125 821.5999755859375 L 1642.9000244140625 815.2000122070312 L 1657.5999755859375 815.2000122070312 L 1642.9000244140625 803.7000122070312 L 1630.5999755859375 802.4000244140625 Z" fill-rule="evenodd" clip-rule="evenodd" fill="#FF6198"/>
		<path d="M 1638.0999755859375 807 L 1630.800048828125 808.5 L 1628.0999755859375 812.5 L 1613.4000244140625 801.7000122070312 L 1606.800048828125 788.5999755859375 L 1584.5999755859375 784.2999877929688 L 1576.699951171875 804.7000122070312 L 1576.5999755859375 783.7999877929688 L 1581.5999755859375 777.9000244140625 L 1576.300048828125 767.7999877929688 L 1558.199951171875 766.9000244140625 L 1540.5999755859375 779.7000122070312 L 1531.699951171875 805.0999755859375 L 1528.199951171875 789.7999877929688 L 1513.199951171875 800.2999877929688 L 1509.9000244140625 814.2999877929688 L 1527.5999755859375 815.2000122070312 L 1553.699951171875 822.5 L 1606.300048828125 821.5999755859375 L 1642.9000244140625 815.2000122070312 L 1650.300048828125 815.2000122070312 Z" fill-rule="evenodd" clip-rule="evenodd" fill="#A13A67"/>
		<path d="M 1621.5 818.9000244140625 L 1598.800048828125 803 L 1592.5 790.9000244140625 L 1584.4000244140625 793.5 L 1572.300048828125 816.7999877929688 L 1571 783.4000244140625 L 1552.4000244140625 786.9000244140625 L 1535.5 817.4000244140625 L 1553.699951171875 822.5 L 1606.300048828125 821.5999755859375 Z" fill-rule="evenodd" clip-rule="evenodd" fill="#4A1330"/>
	</g>
	<g>
		<path d="M 432.79998779296875 772.0999755859375 L 441.70001220703125 758.5999755859375 L 458.20001220703125 750.4000244140625 L 459.1000061035156 748 L 466.20001220703125 732 L 483.5 727.2999877929688 L 495.20001220703125 750.2000122070312 L 512.7999877929688 756.0999755859375 L 522.7000122070312 775.7999877929688 L 498.8999938964844 777 L 481.29998779296875 782 L 445.79998779296875 781.4000244140625 L 421.1000061035156 777 L 411.20001220703125 777 L 421.1000061035156 769.2999877929688 L 429.3999938964844 768.4000244140625 Z" fill-rule="evenodd" clip-rule="evenodd" fill="#FF6198"/>
		<path d="M 424.29998779296875 771.5 L 429.29998779296875 772.5999755859375 L 431.1000061035156 775.2000122070312 L 441 767.9000244140625 L 445.3999938964844 759.0999755859375 L 460.5 756.2000122070312 L 465.79998779296875 770 L 465.8999938964844 755.9000244140625 L 462.5 751.9000244140625 L 466 745.0999755859375 L 478.20001220703125 744.5 L 490.1000061035156 753.0999755859375 L 496.1000061035156 770.2000122070312 L 498.3999938964844 759.9000244140625 L 508.6000061035156 767 L 510.79998779296875 776.4000244140625 L 498.8999938964844 777 L 481.29998779296875 782 L 445.79998779296875 781.4000244140625 L 421.1000061035156 777 L 416.20001220703125 777 Z" fill-rule="evenodd" clip-rule="evenodd" fill="#A13A67"/>
		<path d="M 435.6000061035156 779.5999755859375 L 450.8999938964844 768.9000244140625 L 455.1000061035156 760.7000122070312 L 460.6000061035156 762.4000244140625 L 468.70001220703125 778.2000122070312 L 469.6000061035156 755.5999755859375 L 482.1000061035156 758 L 493.5 778.5 L 481.29998779296875 782 L 445.79998779296875 781.4000244140625 Z" fill-rule="evenodd" clip-rule="evenodd" fill="#4A1330"/>
	</g>
</g>

<g>
	<g>
		<path d="M 0 621.0999755859375 L 142.6999969482422 665.5 L 146.8000030517578 722 L 132.6999969482422 756.2000122070312 L 168.89999389648438 792.5999755859375 L 183.10000610351562 865.2000122070312 L 267.79998779296875 863.0999755859375 L 334.29998779296875 929.7000122070312 L 378.70001220703125 933.7000122070312 L 421 976.0999755859375 L 430.70001220703125 980 L 0 980 Z" fill-rule="evenodd" clip-rule="evenodd" fill="#A13A67"/>
		<path fill-rule="evenodd" clip-rule="evenodd" fill="#4A1330" d="M402.9,980l-20.5-24.4l-44.3-11.6l9.3,35.9H402.9z M335.8,980&#10;&#9;&#9;&#9;l-49.1-46l-26.2-59.5l-78.6,3l2,79.7l-33.3-166.4l-36.3-25.2l-7,49.4l-12.1-59.5l28.2-29.2l-10.1-37.3l-89.8-26.2l-2,132.1&#10;&#9;&#9;&#9;l28.2,14.1l2,123.8L36.6,817L0,813.3V980H335.8z"/>
		<path fill-rule="evenodd" clip-rule="evenodd" fill="#30071D" d="M19,864.1L0,855v125h22.1L19,864.1z M391.5,980l-7-8.7l-41.1-6.9&#10;&#9;&#9;&#9;l4,15.6H391.5z M295.6,980l-10.7-5.2l-10.1-30.3l-38.3-20.2l-8.1-25.2l-46,4l1.4,54l26,14.1l2.1,8.7H295.6z M189,980l-17.1-5.7&#10;&#9;&#9;&#9;l-15.6-85.2l-24.7-5L111.9,782l-4.7,33l-24.1,10.8L74,873.2l4.5-150.7H53.8l-15.6,80.7l11.5,5.7l2,123.8L25.9,980H189z"/>
	</g>
	<g>
		<path fill-rule="evenodd" clip-rule="evenodd" fill="#A13A67" d="M683.9,980l-2.9-17.4l-25.9-4.9l-7.4-79l-32.1-14.8l-3.7-79&#10;&#9;&#9;&#9;c-7.3-1.8-6.1-1.2-13.6-1.2l-49.4,4.9l-11.1,113.6l-27.2,6.2L498.8,980H683.9z"/>
		<path fill-rule="evenodd" clip-rule="evenodd" fill="#4A1330" d="M660.2,980l0.4-2.9l-9.9-6.2l-3.5,9.1H660.2z M633.7,980l1.6-14&#10;&#9;&#9;&#9;l-6.2-68.5l-16-11.1l-7.4,52.5l-14.2-121.6l-29.6,25.3l-20.4,124.1l8.3,13.4H633.7z"/>
		<path fill-rule="evenodd" clip-rule="evenodd" fill="#30071D" d="M616.6,980l-0.5-18.4l-9.8-28l-0.1,11.3l2.8,35H616.6z&#10;&#9;&#9;&#9; M607.4,980l-17.9-36.9l0.6-56.2l-19.7,0.6L552.6,980H607.4z"/>
	</g>
	<g>
		<path d="M 1750 560.2000122070312 L 1729.5999755859375 564.9000244140625 L 1704.4000244140625 719.2999877929688 L 1660.300048828125 719.2999877929688 L 1631.9000244140625 872.2000122070312 L 1534.199951171875 914.7000122070312 L 1516.800048828125 980 L 1750 980 Z" fill-rule="evenodd" clip-rule="evenodd" fill="#A13A67"/>
		<path fill-rule="evenodd" clip-rule="evenodd" fill="#4A1330" d="M1750,715.7l-7.8-0.7l-33.1,53.6l-19.7,107.9l4.7-133.1&#10;&#9;&#9;&#9;l-21.3,10.2l-30.7,155.2l44.9,63.8l1.1,7.4h61.8V715.7z M1664.5,980l-43.6-31.8l-4.7-31.5l-66.2,15.8l-11,47.6H1664.5z"/>
		<path fill-rule="evenodd" clip-rule="evenodd" fill="#30071D" d="M1750,766.3l-3.8-0.1l-31.5,55.9l-13.4,70.9l48.7,77.8V766.3z&#10;&#9;&#9;&#9; M1750,975.6l-29.8-12.5L1719,980h31V975.6z M1664.5,980l-19.9-14.5l-22.3,14.5H1664.5z M1607.4,980l2.5-18.4l-43.3-4.8l-6.7,23.2&#10;&#9;&#9;&#9;H1607.4z"/>
	</g>
	<g>
		<path fill-rule="evenodd" clip-rule="evenodd" fill="#A13A67" d="M1574.8,980l-30.1-56.5l-27.2-8.4l-8.4-42.8l-120.1,9.4&#10;&#9;&#9;&#9;l-27.9,98.2H1574.8z M1214.2,980l-1.7-19.9l-20.9-4.2l-19.8-197.4l-59.5,14.6L1101,980H1214.2z M954.7,980l-3.3-63.8l-35.5,7.3&#10;&#9;&#9;&#9;l-8.1,56.5H954.7z"/>
		<path fill-rule="evenodd" clip-rule="evenodd" fill="#4A1330" d="M1559.1,980l-12.5-32.4l-25.1-8.3L1515,980H1559.1z M1507.7,980&#10;&#9;&#9;&#9;l-10-67.9l-1-4.2l-33.4-12.5l-35.5,19.8l-32.4-6.3l-5.8,71.1H1507.7z M1159.3,980l-5.3-171.3h-33.4L1112,980H1159.3z"/>
		<path fill-rule="evenodd" clip-rule="evenodd" fill="#30071D" d="M1425.2,980l-10.1-10.5l-7.7,10.5H1425.2z M1142.5,980l-7.3-72.1&#10;&#9;&#9;&#9;l-20.7,20.8L1112,980H1142.5z"/>
	</g>
</g>

</svg>