<?xml version="1.0" encoding="utf-8"?>
<svg id="master-artboard" viewBox="0 0 125 125" version="1.1" xmlns="http://www.w3.org/2000/svg" x="0px" y="0px" width="125px" height="125px" enable-background="new 0 0 1750 980"><rect id="ee-background" x="0" y="0" width="125" height="125" style="fill: white; fill-opacity: 0; pointer-events: none;"/>
<linearGradient id="SVGID_1_" gradientUnits="userSpaceOnUse" x1="875" y1="980" x2="875" y2="-3.928380e-008">
	<stop offset="0" style="stop-color:#9900CC"/>
	<stop offset="1" style="stop-color:#021A40"/>
</linearGradient>


<g transform="matrix(1, 0, 0, 1, -846.0037460327148, -50.62956237792969)">
	<path fill-rule="evenodd" clip-rule="evenodd" fill="#486C6C" d="M907.3,69.9c24.9,0,45,20.2,45,45.1c0,24.9-20.2,45-45,45&#10;&#9;&#9;s-45.1-20.2-45.1-45C862.2,90,882.4,69.9,907.3,69.9L907.3,69.9z"/>
	<path fill-rule="evenodd" clip-rule="evenodd" fill="#669999" d="M907.3,69.9c24.9,0,45,20.2,45,45.1c0,9-2.7,17.4-7.2,24.5&#10;&#9;&#9;c-6.5,3.6-13.9,5.6-21.8,5.6c-24.9,0-45-20.2-45-45c0-9,2.7-17.4,7.2-24.5C891.9,71.9,899.4,69.9,907.3,69.9L907.3,69.9z"/>
	<path fill-rule="evenodd" clip-rule="evenodd" fill="#54A9A9" d="M907.3,69.9c13.4,0,25.5,5.9,33.8,15.2c-20.4-0.9-40.8-2.9-61.1-6&#10;&#9;&#9;C887.5,73.3,897,69.9,907.3,69.9L907.3,69.9z M952.1,110.4c0.1,1.5,0.2,3,0.2,4.5c0,5.4-0.9,10.6-2.7,15.4&#10;&#9;&#9;c-28.6-0.2-57.5-2.7-86.7-7.5c-0.5-2.6-0.7-5.2-0.7-7.8c0-10.8,3.8-20.7,10.1-28.5C897.9,97.4,924.6,105.1,952.1,110.4L952.1,110.4&#10;&#9;&#9;z M933,151.9c-7.3,5.1-16.2,8.1-25.8,8.1c-18.3,0-34.1-10.9-41.2-26.6C888.1,141.1,910.4,147.2,933,151.9L933,151.9z"/>
	<path fill-rule="evenodd" clip-rule="evenodd" fill="#99CCCC" d="M907.3,69.9c13.4,0,25.5,5.9,33.8,15.2c-19.3-0.8-38.6-2.7-58-5.5&#10;&#9;&#9;c0.7-1.4,1.5-2.8,2.4-4.1C891.9,71.9,899.4,69.9,907.3,69.9L907.3,69.9z M886.7,126.2c-5.3-7.4-8.4-16.5-8.4-26.3&#10;&#9;&#9;c0-3.6,0.4-7.2,1.2-10.5c23.4,9.4,47.7,16.2,72.6,21c0.1,1.5,0.2,3,0.2,4.5c0,5.4-0.9,10.6-2.7,15.4&#10;&#9;&#9;C928.8,130.1,907.8,128.8,886.7,126.2L886.7,126.2z"/>
	<path fill-rule="evenodd" clip-rule="evenodd" fill="#244848" d="M942.9,87.4c1.8,2.3,3.4,4.9,4.8,7.6c-26,1.2-52-0.5-78-4.9&#10;&#9;&#9;c4.5-6.8,10.8-12.3,18.3-15.9C906.3,80.6,924.6,84.7,942.9,87.4L942.9,87.4z M952.3,115.3c0,2.6-0.2,5-0.7,7.5&#10;&#9;&#9;c-29.3,2.2-59,0.9-89.3-4.4c-0.1-1.1-0.1-2.3-0.1-3.4c0-7.6,1.9-14.8,5.2-21.1C894.1,106,922.6,112.4,952.3,115.3L952.3,115.3z&#10;&#9;&#9; M942.8,142.6c-1.7,2.2-3.6,4.3-5.7,6.1c-20.3,0.9-40.6,0.5-60.9-1.2c-6.5-6.3-11.2-14.5-13.1-23.7&#10;&#9;&#9;C888.9,133.5,915.5,139.6,942.8,142.6L942.8,142.6z M918.6,158.6c-3.6,0.9-7.5,1.4-11.4,1.4c-8.2,0-15.8-2.2-22.4-5.9&#10;&#9;&#9;C896,156.1,907.3,157.7,918.6,158.6L918.6,158.6z"/>
	<path fill-rule="evenodd" clip-rule="evenodd" fill="#336666" d="M942.9,87.4c1.8,2.3,3.4,4.9,4.8,7.6c-22.9,1.1-45.8-0.1-68.7-3.4&#10;&#9;&#9;c1.1-5.8,3.3-11.3,6.4-16.1c0.8-0.5,1.6-0.9,2.5-1.3C906.3,80.6,924.6,84.7,942.9,87.4L942.9,87.4z M939,142.2&#10;&#9;&#9;c-4.9,1.8-10.2,2.8-15.7,2.8c-11.6,0-22.2-4.4-30.2-11.6C908.2,137.4,923.5,140.3,939,142.2L939,142.2z M883.7,121.5&#10;&#9;&#9;c-3.5-6.4-5.5-13.7-5.5-21.5c0-0.5,0-1,0-1.5c23.5,9.2,48.4,14.3,74.1,16.9c0,2.6-0.2,5-0.7,7.5&#10;&#9;&#9;C929.3,124.5,906.7,124.1,883.7,121.5L883.7,121.5z"/>
</g>








</svg>