<?xml version="1.0" encoding="utf-8"?>
<svg id="master-artboard" viewBox="0 0 100 100" version="1.1" xmlns="http://www.w3.org/2000/svg" x="0px" y="0px" width="100px" height="100px" enable-background="new 0 0 1750 980"><rect id="ee-background" x="0" y="0" width="100" height="100" style="fill: white; fill-opacity: 0; pointer-events: none;"/>
<linearGradient id="SVGID_1_" gradientUnits="userSpaceOnUse" x1="875" y1="980" x2="875" y2="-3.928380e-008">
	<stop offset="0" style="stop-color:#9900CC"/>
	<stop offset="1" style="stop-color:#021A40"/>
</linearGradient>











<g transform="matrix(1, 0, 0, 1, -1494.3887481689453, -99.62592315673828)">
	<path fill-rule="evenodd" clip-rule="evenodd" fill="#43614E" d="M1543.6,126c15,0,27.1,12.1,27.1,27.1c0,15-12.1,27.1-27.1,27.1&#10;&#9;&#9;c-15,0-27.1-12.1-27.1-27.1C1516.6,138.2,1528.7,126,1543.6,126L1543.6,126z"/>
	<path fill-rule="evenodd" clip-rule="evenodd" fill="#6F9B7F" d="M1543.6,126c15,0,27.1,12.1,27.1,27.1c0,4.2-0.9,8.2-2.7,11.8&#10;&#9;&#9;c-4,2.4-8.8,3.8-13.8,3.8c-15,0-27.1-12.1-27.1-27.1c0-4.2,0.9-8.2,2.7-11.8C1533.9,127.4,1538.6,126,1543.6,126L1543.6,126z"/>
	<path fill-rule="evenodd" clip-rule="evenodd" fill="#253B2D" d="M1555.7,162.6c2.7,0,4.9,2.2,4.9,4.9c0,2.7-2.2,4.9-4.9,4.9&#10;&#9;&#9;c-2.7,0-4.9-2.2-4.9-4.9C1550.8,164.8,1553,162.6,1555.7,162.6L1555.7,162.6z M1533.3,132.6c0.4,0,0.7,0.3,0.7,0.7&#10;&#9;&#9;c0,0.4-0.3,0.7-0.7,0.7c-0.4,0-0.7-0.3-0.7-0.7C1532.5,133,1532.9,132.6,1533.3,132.6L1533.3,132.6z M1553.9,132.4&#10;&#9;&#9;c0.4,0,0.7,0.3,0.7,0.7c0,0.4-0.3,0.7-0.7,0.7c-0.4,0-0.7-0.3-0.7-0.7C1553.2,132.7,1553.5,132.4,1553.9,132.4L1553.9,132.4z&#10;&#9;&#9; M1563.8,149.8c0.4,0,0.7,0.3,0.7,0.7c0,0.4-0.3,0.7-0.7,0.7c-0.4,0-0.7-0.3-0.7-0.7C1563.1,150.1,1563.5,149.8,1563.8,149.8&#10;&#9;&#9;L1563.8,149.8z M1542.7,170.6c0.4,0,0.7,0.3,0.7,0.7c0,0.4-0.3,0.7-0.7,0.7c-0.4,0-0.7-0.3-0.7-0.7&#10;&#9;&#9;C1542,170.9,1542.3,170.6,1542.7,170.6L1542.7,170.6z M1541.4,164.2c0.4,0,0.7,0.3,0.7,0.7c0,0.4-0.3,0.7-0.7,0.7s-0.7-0.3-0.7-0.7&#10;&#9;&#9;C1540.7,164.5,1541.1,164.2,1541.4,164.2L1541.4,164.2z M1528.6,160.2c1.3,0,2.4,1.1,2.4,2.4c0,1.3-1.1,2.4-2.4,2.4&#10;&#9;&#9;c-1.3,0-2.4-1.1-2.4-2.4C1526.2,161.3,1527.3,160.2,1528.6,160.2L1528.6,160.2z M1534.9,151.3c2.7,0,4.9,2.2,4.9,4.9&#10;&#9;&#9;c0,2.7-2.2,4.9-4.9,4.9s-4.9-2.2-4.9-4.9C1530,153.5,1532.1,151.3,1534.9,151.3L1534.9,151.3z M1540,146.4c0.4,0,0.7,0.3,0.7,0.7&#10;&#9;&#9;c0,0.4-0.3,0.7-0.7,0.7c-0.4,0-0.7-0.3-0.7-0.7C1539.3,146.7,1539.6,146.4,1540,146.4L1540,146.4z M1526.6,148.9&#10;&#9;&#9;c1.3,0,2.4,1.1,2.4,2.4c0,1.3-1,2.4-2.4,2.4c-1.3,0-2.4-1-2.4-2.4C1524.2,150,1525.3,148.9,1526.6,148.9L1526.6,148.9z&#10;&#9;&#9; M1521.8,156.7c0.4,0,0.7,0.3,0.7,0.7c0,0.4-0.3,0.7-0.7,0.7s-0.7-0.3-0.7-0.7C1521.1,157,1521.5,156.7,1521.8,156.7L1521.8,156.7z&#10;&#9;&#9; M1534.2,166c0.4,0,0.7,0.3,0.7,0.7c0,0.4-0.3,0.7-0.7,0.7s-0.7-0.3-0.7-0.7C1533.5,166.3,1533.8,166,1534.2,166L1534.2,166z&#10;&#9;&#9; M1538.3,172.3c1.3,0,2.4,1.1,2.4,2.4c0,1.3-1,2.4-2.4,2.4c-1.3,0-2.4-1.1-2.4-2.4C1535.9,173.4,1537,172.3,1538.3,172.3&#10;&#9;&#9;L1538.3,172.3z M1528.6,167.7c1.3,0,2.4,1,2.4,2.4c0,1.3-1.1,2.4-2.4,2.4c-1.3,0-2.4-1.1-2.4-2.4&#10;&#9;&#9;C1526.2,168.7,1527.3,167.7,1528.6,167.7L1528.6,167.7z"/>
	<path fill-rule="evenodd" clip-rule="evenodd" fill="#548667" d="M1555.7,162.6c2.7,0,4.9,2.2,4.9,4.9c0,0.1,0,0.3,0,0.5&#10;&#9;&#9;c-2,0.5-4.1,0.7-6.3,0.7c-1.2,0-2.3-0.1-3.4-0.2c-0.1-0.3-0.1-0.7-0.1-1C1550.8,164.8,1553,162.6,1555.7,162.6L1555.7,162.6z&#10;&#9;&#9; M1541.6,165.6c-0.3-0.1-0.6-0.3-0.8-0.5c0-0.1,0-0.2,0-0.2c0-0.4,0.3-0.7,0.7-0.7s0.7,0.3,0.7,0.7&#10;&#9;&#9;C1542.1,165.2,1541.9,165.5,1541.6,165.6L1541.6,165.6z M1535.5,161.1c-2-2-3.8-4.3-5.1-6.8c0.8-1.8,2.5-2.9,4.5-2.9&#10;&#9;&#9;c2.7,0,4.9,2.2,4.9,4.9C1539.8,158.7,1537.9,160.8,1535.5,161.1L1535.5,161.1z M1528.9,151.2c-0.2-0.5-0.3-0.9-0.5-1.3&#10;&#9;&#9;C1528.8,150.2,1528.9,150.7,1528.9,151.2L1528.9,151.2z M1533.3,132.6c0.4,0,0.7,0.3,0.7,0.7c0,0.4-0.3,0.7-0.7,0.7&#10;&#9;&#9;c-0.4,0-0.7-0.3-0.7-0.7C1532.5,133,1532.9,132.6,1533.3,132.6L1533.3,132.6z M1553.9,132.4c0.4,0,0.7,0.3,0.7,0.7&#10;&#9;&#9;c0,0.4-0.3,0.7-0.7,0.7c-0.4,0-0.7-0.3-0.7-0.7C1553.2,132.7,1553.5,132.4,1553.9,132.4L1553.9,132.4z M1563.8,149.8&#10;&#9;&#9;c0.4,0,0.7,0.3,0.7,0.7c0,0.4-0.3,0.7-0.7,0.7c-0.4,0-0.7-0.3-0.7-0.7C1563.1,150.1,1563.5,149.8,1563.8,149.8L1563.8,149.8z&#10;&#9;&#9; M1540,146.4c0.4,0,0.7,0.3,0.7,0.7c0,0.4-0.3,0.7-0.7,0.7c-0.4,0-0.7-0.3-0.7-0.7C1539.3,146.7,1539.6,146.4,1540,146.4&#10;&#9;&#9;L1540,146.4z"/>
</g></svg>