<?xml version="1.0" encoding="utf-8"?>
<svg id="master-artboard" viewBox="0 0 1750 980" version="1.1" xmlns="http://www.w3.org/2000/svg" x="0px" y="0px" width="1750px" height="980px" enable-background="new 0 0 1750 980">
<linearGradient id="SVGID_1_" gradientUnits="userSpaceOnUse" x1="875" y1="980" x2="875" y2="-3.928380e-008">
	<stop offset="0" style="stop-color:#9900CC"/>
	<stop offset="1" style="stop-color:#021A40"/>
</linearGradient>

<g>
	<path fill-rule="evenodd" clip-rule="evenodd" fill="#FFFFFF" d="M1040.1,197.3c2.4,0,4.3,2,4.3,4.3c0,2.4-1.9,4.3-4.3,4.3&#10;&#9;&#9;c-2.4,0-4.3-1.9-4.3-4.3C1035.8,199.3,1037.8,197.3,1040.1,197.3L1040.1,197.3z"/>
	<path fill-rule="evenodd" clip-rule="evenodd" fill="#FFFFFF" d="M404.6,55.7c2.4,0,4.3,2,4.3,4.3s-2,4.3-4.3,4.3s-4.3-1.9-4.3-4.3&#10;&#9;&#9;S402.2,55.7,404.6,55.7L404.6,55.7z"/>
	<path fill-rule="evenodd" clip-rule="evenodd" fill="#FFFFFF" d="M89.7,223.6c2.4,0,4.3,1.9,4.3,4.3c0,2.4-1.9,4.3-4.3,4.3&#10;&#9;&#9;c-2.4,0-4.3-1.9-4.3-4.3C85.4,225.5,87.3,223.6,89.7,223.6L89.7,223.6z"/>
	<path fill-rule="evenodd" clip-rule="evenodd" fill="#FFFFFF" d="M604.6,339.6c2.4,0,4.3,1.9,4.3,4.3c0,2.4-2,4.3-4.3,4.3&#10;&#9;&#9;c-2.4,0-4.3-1.9-4.3-4.3C600.3,341.6,602.2,339.6,604.6,339.6L604.6,339.6z"/>
	<path fill-rule="evenodd" clip-rule="evenodd" fill="#FFFFFF" d="M1261.5,117.4c2.4,0,4.3,1.9,4.3,4.3c0,2.4-1.9,4.3-4.3,4.3&#10;&#9;&#9;c-2.4,0-4.3-1.9-4.3-4.3C1257.2,119.3,1259.1,117.4,1261.5,117.4L1261.5,117.4z"/>
	<path fill-rule="evenodd" clip-rule="evenodd" fill="#FFFFFF" d="M1513.4,329.8c2.4,0,4.3,1.9,4.3,4.3c0,2.4-1.9,4.3-4.3,4.3&#10;&#9;&#9;c-2.4,0-4.3-1.9-4.3-4.3C1509,331.7,1511,329.8,1513.4,329.8L1513.4,329.8z"/>
	<path fill-rule="evenodd" clip-rule="evenodd" fill="#FFFFFF" d="M657.1,383.4c1.2,0,2.2,1,2.2,2.2s-0.9,2.2-2.2,2.2&#10;&#9;&#9;c-1.2,0-2.1-1-2.1-2.2S655.9,383.4,657.1,383.4L657.1,383.4z"/>
	<path fill-rule="evenodd" clip-rule="evenodd" fill="#FFFFFF" d="M771.3,232.5c1.2,0,2.1,0.9,2.1,2.1c0,1.2-0.9,2.2-2.1,2.2&#10;&#9;&#9;c-1.2,0-2.2-0.9-2.2-2.2C769.1,233.4,770.1,232.5,771.3,232.5L771.3,232.5z"/>
	<path fill-rule="evenodd" clip-rule="evenodd" fill="#FFFFFF" d="M602.1,139.9c1.2,0,2.1,1,2.1,2.2c0,1.2-0.9,2.1-2.1,2.1&#10;&#9;&#9;s-2.2-0.9-2.2-2.1C600,140.8,601,139.9,602.1,139.9L602.1,139.9z"/>
	<path fill-rule="evenodd" clip-rule="evenodd" fill="#FFFFFF" d="M503.3,272c1.2,0,2.2,0.9,2.2,2.1s-1,2.2-2.2,2.2&#10;&#9;&#9;c-1.2,0-2.1-1-2.1-2.2S502.1,272,503.3,272L503.3,272z"/>
	<path fill-rule="evenodd" clip-rule="evenodd" fill="#FFFFFF" d="M271.2,101.6c1.2,0,2.2,1,2.2,2.2s-1,2.2-2.2,2.2&#10;&#9;&#9;c-1.2,0-2.2-1-2.2-2.2S270,101.6,271.2,101.6L271.2,101.6z"/>
	<path fill-rule="evenodd" clip-rule="evenodd" fill="#FFFFFF" d="M74.9,49.7c1.2,0,2.2,0.9,2.2,2.1c0,1.2-1,2.2-2.2,2.2&#10;&#9;&#9;s-2.2-1-2.2-2.2C72.7,50.7,73.7,49.7,74.9,49.7L74.9,49.7z"/>
	<path fill-rule="evenodd" clip-rule="evenodd" fill="#FFFFFF" d="M213.2,260.9c1.2,0,2.2,1,2.2,2.2s-1,2.2-2.2,2.2&#10;&#9;&#9;c-1.2,0-2.2-1-2.2-2.2S212,260.9,213.2,260.9L213.2,260.9z"/>
	<path fill-rule="evenodd" clip-rule="evenodd" fill="#FFFFFF" d="M45.3,358.4c1.2,0,2.2,1,2.2,2.2s-1,2.2-2.2,2.2s-2.1-1-2.1-2.2&#10;&#9;&#9;S44.1,358.4,45.3,358.4L45.3,358.4z"/>
	<path fill-rule="evenodd" clip-rule="evenodd" fill="#FFFFFF" d="M143.7,437.1c1.2,0,2.1,1,2.1,2.2c0,1.2-0.9,2.1-2.1,2.1&#10;&#9;&#9;s-2.2-0.9-2.2-2.1C141.6,438.1,142.6,437.1,143.7,437.1L143.7,437.1z"/>
	<path fill-rule="evenodd" clip-rule="evenodd" fill="#FFFFFF" d="M654.9,58.1c1.2,0,2.1,0.9,2.1,2.1c0,1.2-0.9,2.2-2.1,2.2&#10;&#9;&#9;c-1.2,0-2.2-0.9-2.2-2.2C652.8,59,653.7,58.1,654.9,58.1L654.9,58.1z"/>
	<path fill-rule="evenodd" clip-rule="evenodd" fill="#FFFFFF" d="M951.2,387.7c1.2,0,2.2,1,2.2,2.2s-1,2.1-2.2,2.1&#10;&#9;&#9;c-1.2,0-2.1-0.9-2.1-2.1S950,387.7,951.2,387.7L951.2,387.7z"/>
	<path fill-rule="evenodd" clip-rule="evenodd" fill="#FFFFFF" d="M753.7,485.3c1.2,0,2.2,0.9,2.2,2.2c0,1.2-1,2.1-2.2,2.1&#10;&#9;&#9;c-1.2,0-2.2-0.9-2.2-2.1C751.5,486.2,752.5,485.3,753.7,485.3L753.7,485.3z"/>
	<path fill-rule="evenodd" clip-rule="evenodd" fill="#FFFFFF" d="M1172.3,439.6c1.2,0,2.2,0.9,2.2,2.1s-1,2.2-2.2,2.2&#10;&#9;&#9;c-1.2,0-2.2-1-2.2-2.2S1171.1,439.6,1172.3,439.6L1172.3,439.6z"/>
	<path fill-rule="evenodd" clip-rule="evenodd" fill="#FFFFFF" d="M1305.6,300.7c1.2,0,2.2,0.9,2.2,2.2c0,1.2-1,2.1-2.2,2.1&#10;&#9;&#9;c-1.2,0-2.2-0.9-2.2-2.1C1303.4,301.6,1304.4,300.7,1305.6,300.7L1305.6,300.7z"/>
	<path fill-rule="evenodd" clip-rule="evenodd" fill="#FFFFFF" d="M1666.1,443.9c1.2,0,2.2,1,2.2,2.2s-1,2.2-2.2,2.2s-2.2-1-2.2-2.2&#10;&#9;&#9;S1664.9,443.9,1666.1,443.9L1666.1,443.9z"/>
	<path fill-rule="evenodd" clip-rule="evenodd" fill="#FFFFFF" d="M1682,306.2c0.7,0,1.3,0.6,1.3,1.3s-0.6,1.3-1.3,1.3&#10;&#9;&#9;c-0.7,0-1.3-0.6-1.3-1.3S1681.3,306.2,1682,306.2L1682,306.2z"/>
	<path fill-rule="evenodd" clip-rule="evenodd" fill="#FFFFFF" d="M1695.8,114.7c0.7,0,1.3,0.6,1.3,1.3c0,0.7-0.6,1.3-1.3,1.3&#10;&#9;&#9;c-0.7,0-1.3-0.6-1.3-1.3C1694.5,115.3,1695.1,114.7,1695.8,114.7L1695.8,114.7z"/>
	<path fill-rule="evenodd" clip-rule="evenodd" fill="#FFFFFF" d="M1604.5,50.5c0.7,0,1.3,0.6,1.3,1.3c0,0.7-0.6,1.3-1.3,1.3&#10;&#9;&#9;c-0.7,0-1.3-0.6-1.3-1.3C1603.1,51,1603.7,50.5,1604.5,50.5L1604.5,50.5z"/>
	<path fill-rule="evenodd" clip-rule="evenodd" fill="#FFFFFF" d="M1324.2,153c0.7,0,1.3,0.6,1.3,1.3c0,0.7-0.6,1.3-1.3,1.3&#10;&#9;&#9;c-0.7,0-1.3-0.6-1.3-1.3C1322.9,153.5,1323.5,153,1324.2,153L1324.2,153z"/>
	<path fill-rule="evenodd" clip-rule="evenodd" fill="#FFFFFF" d="M1139,62.8c0.7,0,1.3,0.6,1.3,1.3c0,0.7-0.6,1.3-1.3,1.3&#10;&#9;&#9;c-0.7,0-1.3-0.6-1.3-1.3C1137.6,63.4,1138.2,62.8,1139,62.8L1139,62.8z"/>
	<path fill-rule="evenodd" clip-rule="evenodd" fill="#FFFFFF" d="M1098.2,198.6c0.7,0,1.3,0.6,1.3,1.3c0,0.7-0.6,1.3-1.3,1.3&#10;&#9;&#9;c-0.7,0-1.3-0.6-1.3-1.3C1096.9,199.2,1097.5,198.6,1098.2,198.6L1098.2,198.6z"/>
	<path fill-rule="evenodd" clip-rule="evenodd" fill="#FFFFFF" d="M1183.4,325.8c0.7,0,1.3,0.6,1.3,1.3s-0.6,1.3-1.3,1.3&#10;&#9;&#9;c-0.7,0-1.3-0.6-1.3-1.3S1182.7,325.8,1183.4,325.8L1183.4,325.8z"/>
	<path fill-rule="evenodd" clip-rule="evenodd" fill="#FFFFFF" d="M1083.4,443.1c0.7,0,1.3,0.6,1.3,1.3c0,0.7-0.6,1.3-1.3,1.3&#10;&#9;&#9;c-0.7,0-1.3-0.6-1.3-1.3C1082.1,443.7,1082.7,443.1,1083.4,443.1L1083.4,443.1z"/>
	<path fill-rule="evenodd" clip-rule="evenodd" fill="#FFFFFF" d="M1208,570.2c0.7,0,1.3,0.6,1.3,1.3c0,0.7-0.6,1.3-1.3,1.3&#10;&#9;&#9;c-0.7,0-1.3-0.6-1.3-1.3C1206.7,570.8,1207.3,570.2,1208,570.2L1208,570.2z"/>
	<path fill-rule="evenodd" clip-rule="evenodd" fill="#FFFFFF" d="M1373.6,439.3c0.7,0,1.3,0.6,1.3,1.3c0,0.7-0.6,1.3-1.3,1.3&#10;&#9;&#9;c-0.7,0-1.3-0.6-1.3-1.3C1372.3,439.9,1372.9,439.3,1373.6,439.3L1373.6,439.3z"/>
	<path fill-rule="evenodd" clip-rule="evenodd" fill="#FFFFFF" d="M950,271.5c0.7,0,1.3,0.6,1.3,1.3c0,0.7-0.6,1.3-1.3,1.3&#10;&#9;&#9;c-0.7,0-1.3-0.6-1.3-1.3C948.7,272.1,949.3,271.5,950,271.5L950,271.5z"/>
	<path fill-rule="evenodd" clip-rule="evenodd" fill="#FFFFFF" d="M759.9,404.8c0.7,0,1.3,0.6,1.3,1.3c0,0.7-0.6,1.3-1.3,1.3&#10;&#9;&#9;c-0.7,0-1.3-0.6-1.3-1.3C758.6,405.4,759.2,404.8,759.9,404.8L759.9,404.8z"/>
	<path fill-rule="evenodd" clip-rule="evenodd" fill="#FFFFFF" d="M530.3,449.3c0.7,0,1.3,0.6,1.3,1.3c0,0.7-0.6,1.3-1.3,1.3&#10;&#9;&#9;c-0.7,0-1.3-0.6-1.3-1.3C528.9,449.9,529.5,449.3,530.3,449.3L530.3,449.3z"/>
	<path fill-rule="evenodd" clip-rule="evenodd" fill="#FFFFFF" d="M527.8,355.4c0.7,0,1.3,0.6,1.3,1.3c0,0.7-0.6,1.3-1.3,1.3&#10;&#9;&#9;c-0.7,0-1.3-0.6-1.3-1.3C526.5,356,527.1,355.4,527.8,355.4L527.8,355.4z"/>
	<path fill-rule="evenodd" clip-rule="evenodd" fill="#FFFFFF" d="M638.9,222.1c0.7,0,1.3,0.6,1.3,1.3c0,0.7-0.6,1.3-1.3,1.3&#10;&#9;&#9;c-0.7,0-1.3-0.6-1.3-1.3C637.6,222.7,638.2,222.1,638.9,222.1L638.9,222.1z"/>
	<path fill-rule="evenodd" clip-rule="evenodd" fill="#FFFFFF" d="M431.5,160.3c0.7,0,1.3,0.6,1.3,1.3c0,0.7-0.6,1.3-1.3,1.3&#10;&#9;&#9;c-0.7,0-1.3-0.6-1.3-1.3C430.2,160.9,430.7,160.3,431.5,160.3L431.5,160.3z"/>
	<path fill-rule="evenodd" clip-rule="evenodd" fill="#FFFFFF" d="M169.7,133.2c0.7,0,1.3,0.6,1.3,1.3c0,0.7-0.6,1.3-1.3,1.3&#10;&#9;&#9;c-0.7,0-1.3-0.6-1.3-1.3C168.4,133.8,169,133.2,169.7,133.2L169.7,133.2z"/>
	<path fill-rule="evenodd" clip-rule="evenodd" fill="#FFFFFF" d="M36.4,185c0.7,0,1.3,0.6,1.3,1.3c0,0.7-0.6,1.3-1.3,1.3&#10;&#9;&#9;c-0.7,0-1.3-0.6-1.3-1.3C35,185.6,35.6,185,36.4,185L36.4,185z"/>
	<path fill-rule="evenodd" clip-rule="evenodd" fill="#FFFFFF" d="M206.7,404.8c0.7,0,1.3,0.6,1.3,1.3c0,0.7-0.6,1.3-1.3,1.3&#10;&#9;&#9;c-0.7,0-1.3-0.6-1.3-1.3C205.5,405.4,206,404.8,206.7,404.8L206.7,404.8z"/>
	<path fill-rule="evenodd" clip-rule="evenodd" fill="#FFFFFF" d="M108,523.4c0.7,0,1.3,0.6,1.3,1.3c0,0.7-0.6,1.3-1.3,1.3&#10;&#9;&#9;c-0.7,0-1.3-0.6-1.3-1.3C106.6,524,107.2,523.4,108,523.4L108,523.4z"/>
	<path fill-rule="evenodd" clip-rule="evenodd" fill="#FFFFFF" d="M199.3,56.6c0.7,0,1.3,0.6,1.3,1.3c0,0.7-0.6,1.3-1.3,1.3&#10;&#9;&#9;c-0.7,0-1.3-0.6-1.3-1.3C198,57.2,198.6,56.6,199.3,56.6L199.3,56.6z"/>
	<path fill-rule="evenodd" clip-rule="evenodd" fill="#FFFFFF" d="M821.6,76.4c0.7,0,1.3,0.6,1.3,1.3c0,0.7-0.6,1.3-1.3,1.3&#10;&#9;&#9;c-0.7,0-1.3-0.6-1.3-1.3C820.3,77,820.9,76.4,821.6,76.4L821.6,76.4z"/>
	<path fill-rule="evenodd" clip-rule="evenodd" fill="#FFFFFF" d="M967.3,39.3c0.7,0,1.3,0.6,1.3,1.3c0,0.7-0.6,1.3-1.3,1.3&#10;&#9;&#9;c-0.7,0-1.3-0.6-1.3-1.3C966,39.9,966.6,39.3,967.3,39.3L967.3,39.3z"/>
	<path fill-rule="evenodd" clip-rule="evenodd" fill="#FFFFFF" d="M1483.4,239.4c0.7,0,1.3,0.6,1.3,1.3c0,0.7-0.6,1.3-1.3,1.3&#10;&#9;&#9;c-0.7,0-1.3-0.6-1.3-1.3C1482.1,240,1482.7,239.4,1483.4,239.4L1483.4,239.4z"/>
	<path fill-rule="evenodd" clip-rule="evenodd" fill="#FFFFFF" d="M1421.7,69c0.7,0,1.3,0.6,1.3,1.3s-0.6,1.3-1.3,1.3&#10;&#9;&#9;c-0.7,0-1.3-0.6-1.3-1.3S1421,69,1421.7,69L1421.7,69z"/>
</g>









</svg>